<svg id="Layer_1" data-name="Layer 1" xmlns="http://www.w3.org/2000/svg" viewBox="0 0 579.3 566.57"><defs><style>.cls-1{fill:#fdc90a;}.cls-2{fill:#103b7f;}.cls-3{fill:#fff;}</style></defs><path d="M969.59,371.12l-.72.15q-3.23-1.08-6.48-2.06C964.8,369.81,967.2,370.44,969.59,371.12Z" transform="translate(-670.44 -256.9)"/><path d="M969.59,371.12l-.72.15q-3.23-1.08-6.48-2.06C964.8,369.81,967.2,370.44,969.59,371.12Z" transform="translate(-670.44 -256.9)"/><path class="cls-1" d="M1109,583.68a199.93,199.93,0,0,1-6.9,52.3c-77.11,79-203.65,80.51-282.63,3.4-1.15-1.12-2.28-2.25-3.41-3.4a200.31,200.31,0,0,1-6.91-52.3c0-93.13,63.69-171.39,149.92-193.57h0C1045.28,412.29,1109,490.54,1109,583.68Z" transform="translate(-670.44 -256.9)"/><path d="M962.39,369.21q3.25,1,6.48,2.06l.72-.15C967.2,370.44,964.8,369.81,962.39,369.21Z" transform="translate(-670.44 -256.9)"/><path class="cls-2" d="M1249.73,588.08l0-2.38-.1-4.77,0-2.38,0-1.19-.08-1.16-.69-9.52-.09-1.16-.14-1.16-.29-2.37-.58-4.73a238.3,238.3,0,0,0-8.1-37.27,242.53,242.53,0,0,0-14.25-35.41l-2.19-4.34-1.09-2.13c-.38-.7-.79-1.38-1.16-2.08-1.59-2.75-3.15-5.53-4.77-8.27l-5.15-8.05-.65-1c-.22-.33-.45-.65-.68-1l-1.38-1.94-2.77-3.9a242.18,242.18,0,0,0-24.85-28.95l-4.17-4a222.72,222.72,0,0,0-27.6-58.95l-2.57-3.92-.64-1c-.22-.32-.46-.63-.69-1l-1.38-1.9-2.78-3.76-1.39-1.89-.69-1-.74-.91-6-7.29c-.48-.62-1-1.19-1.54-1.78l-1.58-1.74-3.15-3.47A238,238,0,0,0,1098,305l-7.59-5.62c-.32-.23-.63-.47-1-.69l-1-.66-2-1.31-3.93-2.64-2-1.31c-.65-.44-1.34-.82-2-1.23l-4.06-2.43-4-2.42-4.17-2.22c-2.79-1.48-5.53-3-8.41-4.32l-4.28-2c-1.43-.67-2.84-1.38-4.31-2l-8.75-3.62-8.91-3.21a237.14,237.14,0,0,0-36.73-9.27l-4.7-.73-2.35-.36c-.78-.13-1.56-.25-2.35-.31l-9.44-1c-1.58-.15-3.16-.19-4.74-.3l-4.75-.27-2.34-.13h-2.38l-4.74,0a225,225,0,0,0-74.8,12.39l-4.49,1.6-2.25.79-1.12.41-1.1.45-8.81,3.62c-.74.29-1.46.63-2.18,1l-2.15,1-4.31,2c-2.9,1.31-5.67,2.9-8.47,4.37l-4.2,2.26c-.71.36-1.39.77-2.07,1.19l-2,1.23-4.08,2.47L833,293l-1,.61-1,.67-7.9,5.34-1,.68-.95.71-1.91,1.43-3.81,2.9A227.11,227.11,0,0,0,763.69,361l-2.61,4-1.29,2c-.43.68-.81,1.37-1.22,2-1.59,2.76-3.22,5.51-4.78,8.27l-4.4,8.49-.55,1.06c-.18.35-.34.72-.51,1.08l-1,2.17-2,4.34a242.26,242.26,0,0,0-12.67,36l-1.81,7.45a222.8,222.8,0,0,0-35.39,50.83l-2.18,4.18-.53,1.05c-.17.35-.33.71-.49,1.06l-1,2.15-1.93,4.28-1,2.15-.48,1.07-.43,1.1-3.39,8.77c-.3.72-.54,1.47-.78,2.22l-.74,2.22-1.47,4.47a236.94,236.94,0,0,0-8.43,36.71l-1.16,9.37c0,.39-.1.78-.13,1.16l-.08,1.15-.17,2.36-.28,4.77-.18,2.32c-.06.79-.05,1.57-.08,2.36l-.1,4.72-.09,4.73.13,4.72c.09,3.15.1,6.32.41,9.45l.36,4.72c.13,1.57.2,3.15.43,4.71l1.16,9.4,1.61,9.33a236.55,236.55,0,0,0,10.14,36.48l1.69,4.44.85,2.21c.28.74.58,1.48.89,2.2l3.81,8.69c.64,1.45,1.39,2.84,2.08,4.27l2.11,4.25,1.07,2.13,1.15,2.07,2.32,4.15a225.28,225.28,0,0,0,47.78,58.83l3.6,3.12,1.8,1.55c.31.26.58.53.91.78l.94.73,7.52,5.87c.62.5,1.27,1,1.92,1.41l2,1.37,3.9,2.73c2.57,1.88,5.3,3.48,8,5.21l4,2.53c.67.44,1.36.83,2.06,1.21l2.08,1.16,4.16,2.31,2.08,1.16,1.05.58,1.06.53,8.55,4.22,1.07.52,1.1.48,2.19.95,4.38,1.89a239.54,239.54,0,0,0,36.26,11.91,243,243,0,0,0,37.75,5.6l4.77.29,2.38.13c.8,0,1.59,0,2.39,0,3.19,0,6.37.08,9.56.07l9.55-.37,1.19-.05c.39,0,.79-.06,1.19-.1l2.37-.21,4.76-.41a241.93,241.93,0,0,0,37.58-6.79l7.56-2.17a223.07,223.07,0,0,0,63.57,5.21l4.69-.26,1.16-.07c.39,0,.77-.09,1.16-.12l2.31-.25,4.67-.51,2.32-.26,1.15-.13,1.16-.19,9.27-1.51c.77-.11,1.54-.28,2.31-.44l2.32-.5,4.6-1a238.69,238.69,0,0,0,35.89-11.29l8.69-3.77c.36-.16.72-.3,1.08-.47l1.06-.53,2.11-1,4.23-2.09,2.12-1c.71-.35,1.38-.76,2.07-1.16l4.13-2.31,4.13-2.32,4-2.5c2.66-1.67,5.39-3.27,7.94-5.13l3.89-2.69c1.29-.91,2.61-1.78,3.84-2.76l7.53-5.79,7.24-6.11a238.76,238.76,0,0,0,26.37-27.22l3-3.7,1.49-1.86c.5-.61,1-1.22,1.45-1.87l5.57-7.69c.93-1.29,1.74-2.64,2.64-4l2.6-4,1.29-2,1.21-2.05,2.4-4.1a225.37,225.37,0,0,0,26.6-71l.86-4.68.44-2.32c.07-.39.15-.78.21-1.15l.15-1.16,1.27-9.45c.12-.79.18-1.58.24-2.37l.2-2.38.38-4.75c.33-3.16.35-6.37.46-9.52l.13-4.76A18.05,18.05,0,0,0,1249.73,588.08ZM736.55,485c0-.75.07-1.51.1-2.27l.22-4.53c.08-1.51.12-3,.24-4.54l.44-4.52.43-4.53.11-1.15.16-1.13.33-2.24.65-4.5.33-2.25c.09-.75.27-1.49.41-2.24l1.73-8.91,2.16-8.83a230,230,0,0,1,12-34.26l1.88-4.13,1-2.06c.16-.34.3-.7.48-1l.52-1,4.17-8.07c1.49-2.64,3-5.25,4.53-7.88.39-.65.75-1.31,1.16-1.95l1.23-1.92,2.46-3.82a231,231,0,0,1,22.24-28.69,235,235,0,0,1,26.73-24.61l3.6-2.77,1.81-1.38.9-.69.93-.65,7.5-5.17.94-.64,1-.58,1.94-1.2,3.87-2.39,1.94-1.2c.64-.4,1.28-.79,2-1.15l4-2.2c2.67-1.45,5.29-3,8.06-4.24l4.09-2,2-1c.69-.34,1.36-.68,2.07-1l8.38-3.57,1-.45,1.06-.4,2.14-.79,4.27-1.57a233.83,233.83,0,0,1,35.18-9.45,231.4,231.4,0,0,1,36.3-3.47,227,227,0,0,1,72.11,10.52l8.69,2.9,8.55,3.31c1.44.52,2.82,1.16,4.22,1.8l4.2,1.86c2.83,1.16,5.53,2.62,8.27,4a225,225,0,0,1,83,71.46l2.68,3.77c.22.32.46.62.67.95l.62,1,1.24,2,2.5,3.9,1.24,2,.62,1,.58,1q4.8,8,8.85,16.31a228.26,228.26,0,0,1,10.42,24.61l-2-1.89-7.22-6.26c-.62-.51-1.2-1.06-1.83-1.54l-1.88-1.48-3.72-3-1.87-1.48-.95-.73-1-.69-3.9-2.75-3.9-2.77c-1.31-.89-2.67-1.73-4-2.6l-4.05-2.57-2-1.28-2.08-1.19-4.14-2.37-2.07-1.2c-.69-.38-1.38-.8-2.1-1.15l-8.5-4.35a241.15,241.15,0,0,0-35.62-13.71l-4.59-1.3-2.32-.64a23.13,23.13,0,0,0-2.32-.58l-9.31-2.13-1.16-.26-1.15-.21-2.35-.41-4.71-.82c-3.12-.61-6.3-.93-9.45-1.33-7.35-.87-14.74-1.45-22.13-1.66a274.59,274.59,0,0,0-63.83-25.3l-.66-.16h-1.28l-.64.16A276,276,0,0,0,751.19,569.71,223.85,223.85,0,0,1,737,505.41l-.44-9.08c-.06-.76,0-1.51,0-2.27Zm387.11,104.25a222.43,222.43,0,0,1-7.26,56.48,221.39,221.39,0,0,1-314.67,0A221.66,221.66,0,0,1,959.06,375.19,221.2,221.2,0,0,1,1123.66,589.21Zm-168.37-225-.34.09A232.74,232.74,0,0,0,782.88,589.21a235.6,235.6,0,0,0,3.81,42.16,242.32,242.32,0,0,1-16.43-23.16,199.07,199.07,0,0,1-10-17.81A265.6,265.6,0,0,1,958.22,341a266.34,266.34,0,0,1,43.07,15.37,237.93,237.93,0,0,0-31.67,4.3q-7.22,1.52-14.33,3.5Zm-194,249.65a238.77,238.77,0,0,0,22.9,30.43,241.67,241.67,0,0,0,26.1,24.89,232.75,232.75,0,0,0,301.43-3.22,240,240,0,0,1-13.25,28.95,191.24,191.24,0,0,1-10,16.62A266.21,266.21,0,0,1,769,666.32a265.24,265.24,0,0,1-8.43-53.56C760.79,613.13,761,613.49,761.25,613.84ZM1122.93,665a242.74,242.74,0,0,0,7.79-29.78c0-.22.09-.44.13-.66A233.25,233.25,0,0,0,979.44,369.34a240.92,240.92,0,0,1,28.37-2.67q6.77-.27,13.53-.06a266.32,266.32,0,0,1,126.1,299.73,268.61,268.61,0,0,1-39.28,32.91A238,238,0,0,0,1122.93,665ZM923.87,810.9l-4.53.4-2.26.21c-.38,0-.75.07-1.13.09l-1.16,0-9.08.37c-3,0-6.05,0-9.08,0h-2.27l-2.27-.13-4.54-.25a229.46,229.46,0,0,1-35.94-5.13,237.31,237.31,0,0,1-34.61-11l-4.19-1.78-2.09-.88-1.05-.44-1-.49-8.19-4-1-.5-1-.54-2-1.09-4-2.19-2-1.09c-.67-.36-1.33-.72-2-1.15l-3.88-2.39c-2.58-1.6-5.21-3.13-7.68-4.9l-3.76-2.57-1.87-1.28c-.63-.43-1.26-.86-1.86-1.32l-7.25-5.52-.91-.69c-.29-.23-.58-.49-.87-.73l-1.73-1.47-3.48-2.93a234.58,234.58,0,0,1-25.61-25.9,231.56,231.56,0,0,1-21-29.81A226.54,226.54,0,0,1,682,633.93l-1.79-9-1.35-9.08c-.26-1.51-.36-3-.53-4.55l-.45-4.56c-.38-3-.47-6.1-.64-9.15A225.09,225.09,0,0,1,698.32,490.1l1.95-4.2c.17-.34.32-.7.5-1l.54-1,1.08-2,2.16-4.1,1.08-2.05.54-1,.58-1q4.57-8.07,9.8-15.77a221.74,221.74,0,0,1,14-18.6l-.11.46-1.8,9.38c-.14.79-.32,1.57-.42,2.36l-.34,2.36-.7,4.7-.34,2.37-.17,1.16-.11,1.19-.45,4.76-.45,4.75c-.12,1.59-.16,3.18-.24,4.77l-.22,4.77c0,.8-.08,1.6-.1,2.39v9.55c0,.8,0,1.6,0,2.39l.49,9.54a240.66,240.66,0,0,0,5.91,37.75l1.16,4.64.57,2.31c.2.78.39,1.55.64,2.32l2.84,9.11.36,1.15.4,1.13.82,2.24,1.63,4.49c1,3,2.32,5.91,3.58,8.84q2.94,6.86,6.25,13.51c0,1.49,0,3,0,4.49a276.36,276.36,0,0,0,9.58,72.25l.35,1.31,1,1a276.49,276.49,0,0,0,306.68,60.9q3.73-1.6,7.41-3.32a223.52,223.52,0,0,1-49.16,44.43l-7.66,4.87c-.63.42-1.3.78-2,1.16l-2,1.12-3.92,2.25-2,1.13c-.66.35-1.35.68-2,1l-4,2c-1.36.68-2.69,1.4-4.05,2l-4.15,1.86L989.62,794l-1,.46-1.06.41-2.12.84-4.22,1.65-2.12.83c-.7.29-1.43.5-2.14.75l-8.61,2.89-8.74,2.51a231.7,231.7,0,0,1-35.73,6.52ZM1239.1,590.44,1239,595c-.07,3-.06,6.08-.34,9.1l-.32,4.54-.16,2.27c0,.76-.1,1.52-.2,2.27l-1.09,9.05-.14,1.13c0,.37-.13.74-.18,1.12l-.39,2.25-.77,4.48a233.61,233.61,0,0,1-9.42,35.17,227.37,227.37,0,0,1-60.26,90.42l-6.86,6.08-7.15,5.75c-1.16,1-2.44,1.85-3.66,2.76l-3.71,2.69c-2.44,1.86-5,3.48-7.58,5.21a225,225,0,0,1-103.36,36.16l-4.63.44-1.16.11-1.16,0-2.31.1-4.64.21-2.31.11-1.16,0h-1.16q-9.27.13-18.53-.48a222.61,222.61,0,0,1-25.1-3l.44-.12,9-3.07c.75-.26,1.51-.49,2.25-.79l2.22-.87,4.45-1.74,2.22-.88,1.11-.43,1.09-.5,8.69-3.92c1.44-.68,2.84-1.44,4.27-2.15l4.25-2.17,2.13-1.09,2.07-1.16,4.14-2.37,2.08-1.19c.69-.4,1.39-.78,2-1.22l8-5.14a240.68,240.68,0,0,0,29.84-23.8l3.44-3.31,1.74-1.65c.58-.55,1.16-1.1,1.69-1.69l6.53-6.95.82-.88.77-.91,1.55-1.81,3.09-3.64c2.1-2.39,4-5,5.91-7.49,3.28-4.33,6.44-8.75,9.43-13.27a276.41,276.41,0,0,0,59.18-46.11l1-1,.35-1.31a276.39,276.39,0,0,0-113.12-302h.15a222.43,222.43,0,0,1,69.34,20.79l8.1,4.16c.68.33,1.33.73,2,1.1l2,1.15,3.93,2.27,2,1.16,1.91,1.22,3.82,2.46c1.27.83,2.57,1.61,3.81,2.47l3.7,2.64,3.68,2.6.92.65.89.71,1.79,1.4,3.57,2.81,1.78,1.4c.58.47,1.16,1,1.74,1.48l6.86,6,6.57,6.27a232.26,232.26,0,0,1,23.68,27.51l2.63,3.7,1.32,1.85.66.93.61.95,4.94,7.66c1.54,2.61,3,5.24,4.55,7.87.37.65.76,1.3,1.12,2l1,2,2.08,4.05a229.54,229.54,0,0,1,13.74,33.58,236.31,236.31,0,0,1,8,35.46l.57,4.51.31,2.25.15,1.16.09,1.15.73,9.08.1,1.16,0,1.15.07,2.28L1239,586l.07,2.28a19.25,19.25,0,0,1,0,2.17Z" transform="translate(-670.44 -256.9)"/><path class="cls-2" d="M894.38,492.46a7.39,7.39,0,0,1,.31-1.74,8,8,0,0,1,.71-1.62,8.15,8.15,0,0,1,1.05-1.42,6.78,6.78,0,0,1,1.34-1.16,6.54,6.54,0,0,1,1.58-.75,5.63,5.63,0,0,1,1.73-.27,5.16,5.16,0,0,1,1.41.2,7,7,0,0,1,1.45.58l-1.13,3a4.79,4.79,0,0,0-.92-.33,2.79,2.79,0,0,0-.81-.12,3.31,3.31,0,0,0-1.29.27,5.07,5.07,0,0,0-1.24.75,4.3,4.3,0,0,0-1,1.07,3.15,3.15,0,0,0-.5,1.28.57.57,0,0,0,.16.47,1.39,1.39,0,0,0,.48.32,6.2,6.2,0,0,0,.69.23l.79.2q.74.19,1.44.42a4.87,4.87,0,0,1,1.25.57,2.7,2.7,0,0,1,.87.91,2.91,2.91,0,0,1,.33,1.47,4.41,4.41,0,0,1-.41,1.93,4.72,4.72,0,0,1-1.11,1.47,6.49,6.49,0,0,1-1.61,1.08,11.11,11.11,0,0,1-1.92.72,12.91,12.91,0,0,1-2,.4,15.71,15.71,0,0,1-1.95.12,10.71,10.71,0,0,1-3.13-.44,7.23,7.23,0,0,1-2.47-1.3,6.14,6.14,0,0,1-1.61-2.14,7.07,7.07,0,0,1-.57-2.94v-.53a2,2,0,0,1,0-.5,12.81,12.81,0,0,1,.28-2.13c.16-.67.32-1.28.49-1.81a12.81,12.81,0,0,1,.47-1.3c.15-.33.23-.52.25-.58l2.54,1.08c-.19.45-.36.89-.53,1.34s-.31.91-.43,1.37a14.11,14.11,0,0,0-.29,1.41,10.24,10.24,0,0,0-.1,1.46,3.35,3.35,0,0,0,.42,1.78,3.22,3.22,0,0,0,1.13,1.16,5.18,5.18,0,0,0,1.61.58,9.92,9.92,0,0,0,1.89.18,17.06,17.06,0,0,0,2.47-.15,13.44,13.44,0,0,0,2-.47,5.28,5.28,0,0,0,1.37-.67,1.4,1.4,0,0,0,.58-.79l-1.36-.3c-.47-.11-.94-.23-1.4-.37a9.61,9.61,0,0,1-1.32-.54,4.13,4.13,0,0,1-1.08-.78,3.14,3.14,0,0,1-.71-1.12A3.51,3.51,0,0,1,894.38,492.46Z" transform="translate(-670.44 -256.9)"/><path class="cls-2" d="M910.22,495.37" transform="translate(-670.44 -256.9)"/><path class="cls-2" d="M925.06,489.31a4.38,4.38,0,0,0-.76-1.47,5.52,5.52,0,0,0-.89-.85,8.19,8.19,0,0,0-1.07-.7c-.4-.22-.84-.45-1.34-.68s-1.07-.49-1.7-.79l-2.38-1.12c-.83-.4-1.67-.82-2.53-1.27l-1.94,2.9.52.29a4.34,4.34,0,0,0-1.22,1.71,5.27,5.27,0,0,0-.41,2.07,5.54,5.54,0,0,0,.18,1.4,5,5,0,0,0,.54,1.29l-.58,0h-1.6a1.34,1.34,0,0,1-.4-.07.92.92,0,0,1-.32-.18,1,1,0,0,1-.23-.36,2.59,2.59,0,0,1-.18-.95,10.71,10.71,0,0,1,0-1.39c0-.52,0-1.05,0-1.61a14.41,14.41,0,0,0,0-1.61c0-.51,0-1.2,0-1.88s0-1.33-.08-2-.08-1.31-.13-1.92a13.38,13.38,0,0,0-.22-1.58l-3,.93a14.25,14.25,0,0,1,.24,1.84c.06.71.1,1.45.13,2.22s.06,1.53.06,2.32,0,1.46,0,2.1v2.9a6.72,6.72,0,0,0,.24,1.79,3.73,3.73,0,0,0,.81,1.42,3.79,3.79,0,0,0,1.43.94,5.85,5.85,0,0,0,2,.34h.41c.43,0,.87,0,1.33,0s.91-.07,1.35-.13.87-.11,1.27-.18a10,10,0,0,0,1.08-.26,7,7,0,0,0,.88.29,9.79,9.79,0,0,0,1,.2c.34.05.67.09,1,.11s.63,0,.92,0a5.14,5.14,0,0,0,.85,0,8,8,0,0,0,1-.12,9.6,9.6,0,0,0,1-.22,3,3,0,0,0,.78-.32,4.86,4.86,0,0,0,1.74-1.69,4.32,4.32,0,0,0,.58-2.16A5.67,5.67,0,0,0,925.06,489.31Zm-7.45.87a2.21,2.21,0,0,1-.48.73,2,2,0,0,1-.67.43,3.18,3.18,0,0,1-.75.19,2.62,2.62,0,0,1-.51-.3,4.41,4.41,0,0,1-.51-.46,3.56,3.56,0,0,1-.41-.53,1.36,1.36,0,0,1-.2-.54,2,2,0,0,1,.14-.87,3.61,3.61,0,0,1,.49-.85,3.34,3.34,0,0,1,.67-.63,1,1,0,0,1,.7-.19,1.42,1.42,0,0,1,.51.21,2.46,2.46,0,0,1,.57.45,2.8,2.8,0,0,1,.46.57,1.35,1.35,0,0,1,.18.67A3.07,3.07,0,0,1,917.61,490.18Zm4.86,1.44a1.67,1.67,0,0,1-.72.47,3.84,3.84,0,0,1-1.07.22c-.41,0-.87.06-1.37.06h-.09a9.16,9.16,0,0,0,.46-.8,8.18,8.18,0,0,0,.39-.92,5.57,5.57,0,0,0,.27-1,4.87,4.87,0,0,0,.1-1c.26.14.52.31.81.49s.52.37.77.57a4,4,0,0,1,.58.58.82.82,0,0,1,.2.54A1.36,1.36,0,0,1,922.47,491.62Z" transform="translate(-670.44 -256.9)"/><path class="cls-2" d="M939.83,482.52l-1.91,1.91L936,482.5l-1.94,2,2,2,1.9-1.92,1.93,1.93,1.94-2Z" transform="translate(-670.44 -256.9)"/><path class="cls-2" d="M958,489.08a4.15,4.15,0,0,1,.18,1.31,5.18,5.18,0,0,1-.39,2,5,5,0,0,1-1.07,1.58,4.9,4.9,0,0,1-1.61,1,5.17,5.17,0,0,1-2.06.39h-3.17a8.24,8.24,0,0,1-1.48-.14,5.1,5.1,0,0,1-1.27-.41,4.09,4.09,0,0,1-1-.74,5.17,5.17,0,0,1-.82-1.1,9.25,9.25,0,0,1-3.48,1.83,17.34,17.34,0,0,1-4.76.57,18,18,0,0,1-5.84-.79,5.86,5.86,0,0,1-3.31-2.46,4,4,0,0,1-.46-1.24,5.7,5.7,0,0,1-.09-1.54,8.87,8.87,0,0,1,.33-1.78,10.27,10.27,0,0,1,.77-1.92l2.41,1.4a7.65,7.65,0,0,0-.38.86,5,5,0,0,0-.28.93,4.07,4.07,0,0,0-.12.92,1.6,1.6,0,0,0,.19.77,2.14,2.14,0,0,0,1,.9,6.65,6.65,0,0,0,1.57.49,13.41,13.41,0,0,0,2,.19c.71,0,1.46,0,2.23,0s1.38,0,2-.07a14.42,14.42,0,0,0,1.73-.25,8.19,8.19,0,0,0,1.46-.44,4.23,4.23,0,0,0,1.12-.66,3.13,3.13,0,0,0,.69-.76,5,5,0,0,0,.47-.89,6.48,6.48,0,0,0,.32-1c.08-.33.17-.68.25-1l2.83.72-.42,2.16a2.13,2.13,0,0,0,0,.87,1.5,1.5,0,0,0,.42.68,2.27,2.27,0,0,0,.79.47,3.82,3.82,0,0,0,1.11.16H952a8.89,8.89,0,0,0,1.15-.08,5.35,5.35,0,0,0,1.05-.25,1.77,1.77,0,0,0,.76-.47,1.42,1.42,0,0,0,.39-.78,2.62,2.62,0,0,0-.11-1.18,2.37,2.37,0,0,0-.3-.62,8.9,8.9,0,0,0-.58-.79c-.23-.29-.5-.58-.8-.92s-.63-.64-1-1-.71-.67-1.09-1-.75-.66-1.15-1l.31-2.78,8.5-3.81,1.23,2.73-6.62,3.15a10.25,10.25,0,0,1,1,.83,14.28,14.28,0,0,1,1,1q.49.59.93,1.2a9.39,9.39,0,0,1,.76,1.3A6.35,6.35,0,0,1,958,489.08Z" transform="translate(-670.44 -256.9)"/><path class="cls-2" d="M977,477.73l-1.8,1.81,1.81,1.82,1.81-1.81Zm1.9,2.8-1.9,1.92-2-1.94-1.94,2,2,2,1.9-1.92,1.93,1.94,1.94-2Zm-11.39,14.84" transform="translate(-670.44 -256.9)"/><path class="cls-2" d="M984.14,491.06a5.71,5.71,0,0,1-.28,1.84,3.61,3.61,0,0,1-.84,1.39,3.91,3.91,0,0,1-1.41.88,5.51,5.51,0,0,1-2,.33,4.2,4.2,0,0,1-1-.11,3.41,3.41,0,0,1-.81-.29,3,3,0,0,1-.63-.44,3.72,3.72,0,0,1-.48-.57,4,4,0,0,1-.52.57,2.48,2.48,0,0,1-.64.43,3.41,3.41,0,0,1-.81.29,4.88,4.88,0,0,1-1,.11,3.32,3.32,0,0,1-.89-.09,2.89,2.89,0,0,1-.74-.28,2.71,2.71,0,0,1-.57-.44,3.41,3.41,0,0,1-.5-.58,3.86,3.86,0,0,1-.49.5,3.07,3.07,0,0,1-.65.4,4.39,4.39,0,0,1-.87.27,6.94,6.94,0,0,1-1.11.1h-.79a3.29,3.29,0,0,1-.83-.23,7.88,7.88,0,0,1-.84,2.4,10.28,10.28,0,0,1-1.51,2.13,12.79,12.79,0,0,1-2.06,1.83,16.56,16.56,0,0,1-2.45,1.5l-1.85-2.58c.48-.24,1-.51,1.44-.8a13.38,13.38,0,0,0,1.39-.92,12.13,12.13,0,0,0,1.24-1,8.53,8.53,0,0,0,1-1.08,5.34,5.34,0,0,0,.66-1.16,3,3,0,0,0,.25-1.18,4.25,4.25,0,0,0-.15-1c-.11-.41-.23-.85-.39-1.32s-.32-.94-.52-1.42-.37-.9-.54-1.3l2.89-1.28c.23.69.48,1.37.77,2a7.93,7.93,0,0,0,.72,1.31,2.55,2.55,0,0,0,.66.69,1.3,1.3,0,0,0,.64.2h0a2,2,0,0,0,1.29-.42,3.33,3.33,0,0,0,.89-1.08,8.59,8.59,0,0,0,.63-1.54q.25-.87.48-1.74l2.7.49c-.06.24-.12.51-.2.83s-.15.65-.21,1-.12.67-.16,1a4,4,0,0,0,0,.85,1.24,1.24,0,0,0,.19.58.46.46,0,0,0,.47.16,1.3,1.3,0,0,0,.73-.29,2.76,2.76,0,0,0,.58-.65,5.14,5.14,0,0,0,.47-.9,9.55,9.55,0,0,0,.34-1c.1-.35.18-.7.25-1.05s.12-.66.15-.95l2.57.44a6.34,6.34,0,0,1-.07.75c0,.3-.07.62-.11.95s0,.66,0,1a3.27,3.27,0,0,0,.11.88,1.46,1.46,0,0,0,.37.65,1.13,1.13,0,0,0,.73.24,2,2,0,0,0,.58-.1,1.75,1.75,0,0,0,.52-.28,1.53,1.53,0,0,0,.38-.42,1,1,0,0,0,.14-.55,4.57,4.57,0,0,0-.16-1.16,11.86,11.86,0,0,0-.43-1.27c-.16-.41-.33-.81-.51-1.18s-.32-.69-.44-1l2.51-1.42.21.47c.1.22.21.48.34.8s.27.66.4,1.05.27.8.38,1.22.21.86.29,1.29A7.53,7.53,0,0,1,984.14,491.06Z" transform="translate(-670.44 -256.9)"/><path class="cls-2" d="M996.42,495.38a5.33,5.33,0,0,1-3.17-1.11,4.2,4.2,0,0,1-1.11-1.3,3.4,3.4,0,0,1-.43-1.74A6.69,6.69,0,0,1,993.5,487l.23-.29.18-.2.15-.16.18-.19-.61-.53,2-2.47a13.52,13.52,0,0,1,1.23,1c.48.44,1,1,1.67,1.68,1.74,2,2.62,3.79,2.62,5.35a3.75,3.75,0,0,1-.42,1.8,4.22,4.22,0,0,1-1.08,1.3,4.79,4.79,0,0,1-1.52.79A5.93,5.93,0,0,1,996.42,495.38Zm2-4.15a1.65,1.65,0,0,0-.2-.72,5,5,0,0,0-.53-.82c-.22-.29-.46-.58-.73-.88s-.54-.58-.81-.86c-.19.21-.38.44-.58.69a7.5,7.5,0,0,0-.58.81,7.1,7.1,0,0,0-.42.88,2.49,2.49,0,0,0-.13.9.55.55,0,0,0,.23.42,1.86,1.86,0,0,0,.53.3,3.66,3.66,0,0,0,.65.17,5.7,5.7,0,0,0,.58.06c.22,0,.44,0,.66-.05a2.78,2.78,0,0,0,.63-.16,1.32,1.32,0,0,0,.48-.29.58.58,0,0,0,.22-.45Z" transform="translate(-670.44 -256.9)"/><path class="cls-2" d="M1001.81,499.42a18,18,0,0,0,2.61-.71,12.81,12.81,0,0,0,2.05-1,6.9,6.9,0,0,0,1.47-1.16,3.62,3.62,0,0,0,.83-1.22h-.92c-.33,0-.59,0-.8,0a7.11,7.11,0,0,1-1.83-.39,4.3,4.3,0,0,1-1.4-.82,3.58,3.58,0,0,1-.93-1.28,4.48,4.48,0,0,1-.32-1.74,6.84,6.84,0,0,1,.13-1.27,6.91,6.91,0,0,1,.39-1.27,6.1,6.1,0,0,1,.61-1.16,5.52,5.52,0,0,1,.83-1,4,4,0,0,1,1-.65,3,3,0,0,1,1.21-.25,3.68,3.68,0,0,1,1.7.41,4.81,4.81,0,0,1,1.36,1.09,6.66,6.66,0,0,1,1,1.56,10.67,10.67,0,0,1,.68,1.84,11,11,0,0,1,.35,1.9,10,10,0,0,1,0,1.73,8.37,8.37,0,0,1-1.59,4.17,9,9,0,0,1-1.49,1.6,11.52,11.52,0,0,1-1.84,1.26,12.37,12.37,0,0,1-2.11.92,15.22,15.22,0,0,1-2.31.55Zm5-10.67a.65.65,0,0,0-.48.15,2.06,2.06,0,0,0-.51.51,3.21,3.21,0,0,0-.39.7,2.14,2.14,0,0,0-.16.75.8.8,0,0,0,.22.58,1.71,1.71,0,0,0,.54.38,4.12,4.12,0,0,0,.76.22,8.28,8.28,0,0,0,.84.09l.78,0h.63c-.1-.41-.22-.81-.36-1.21a6.54,6.54,0,0,0-.48-1,3.09,3.09,0,0,0-.62-.77A1.57,1.57,0,0,0,1006.77,488.75Z" transform="translate(-670.44 -256.9)"/><path class="cls-2" d="M1029,475.34l-7.74,3.25-.08,1.53,8.38-3.57Zm-8.46,20" transform="translate(-670.44 -256.9)"/><path class="cls-2" d="M1028.62,489.08a4.45,4.45,0,0,1,.17,1.31,5.18,5.18,0,0,1-.39,2,5.1,5.1,0,0,1-1.06,1.58,5,5,0,0,1-1.62,1,5.17,5.17,0,0,1-2.06.39h-3.55a2.92,2.92,0,0,1-.83-.23,8.14,8.14,0,0,1-.83,2.4,11.08,11.08,0,0,1-1.52,2.14,13.09,13.09,0,0,1-2,1.82,17.2,17.2,0,0,1-2.46,1.5l-1.85-2.58c.48-.24,1-.51,1.44-.8a13.38,13.38,0,0,0,1.39-.92,12.13,12.13,0,0,0,1.24-1,8.53,8.53,0,0,0,1-1.08,5.56,5.56,0,0,0,.67-1.16,3.19,3.19,0,0,0,.24-1.18,4.43,4.43,0,0,0-.16-1q-.15-.62-.39-1.32c-.15-.47-.32-.94-.51-1.42s-.37-.91-.55-1.3l2.93-1.28a20.66,20.66,0,0,0,.77,2,8.35,8.35,0,0,0,.72,1.31,2.41,2.41,0,0,0,.66.69,1.24,1.24,0,0,0,.63.2h2a11.11,11.11,0,0,0,1.16-.09,6.27,6.27,0,0,0,1-.24,1.87,1.87,0,0,0,.77-.47,1.47,1.47,0,0,0,.38-.78,2.53,2.53,0,0,0-.11-1.19,2.31,2.31,0,0,0-.3-.61,9.78,9.78,0,0,0-.58-.8c-.22-.28-.5-.58-.8-.91s-.63-.65-1-1-.71-.67-1.09-1-.75-.66-1.15-1l.31-2.78,8.5-3.81,1.23,2.74-6.67,3.15a10.25,10.25,0,0,1,1,.83,14.28,14.28,0,0,1,1,1,15,15,0,0,1,.94,1.2,13,13,0,0,1,.76,1.3A9.87,9.87,0,0,1,1028.62,489.08Z" transform="translate(-670.44 -256.9)"/><path class="cls-2" d="M936.13,531.12c.39-.16.54.28.39,1.31s-.36,2.36-.72,4a32.3,32.3,0,0,0-.58,4.26q-.57,12.36-1.15,26.7a46.68,46.68,0,0,1-6.58,21q-8.57,15-20.61,14.67c-8-.19-12.08-4.14-12.08-11.78s2.63-15.1,7.87-22.4c1.49-2,2.31-2.89,2.51-2.7a.7.7,0,0,1,.06.35,8.11,8.11,0,0,1-1.29,3.13q-5.43,9.17-5.41,14,0,9.32,10.29,9.31a20.5,20.5,0,0,0,12.6-4.11,21.1,21.1,0,0,0,7.71-11.15A46.4,46.4,0,0,0,930.3,568c.09-4,.18-8.93.18-14.94s.24-9.49.66-10.53a111.74,111.74,0,0,1,5-11.43Z" transform="translate(-670.44 -256.9)"/><path class="cls-2" d="M963.07,534.36a6.22,6.22,0,0,1-.8,3.69c-.93,1.85-1.8,2.76-2.58,2.76-.53-.47-1.34-1.13-2.39-1.94s-1.62-1.41-1.62-1.74.51-1.25,1.41-3.07a35,35,0,0,1,2.27-4.17,17.3,17.3,0,0,1,2.78,2.48,4.06,4.06,0,0,1,.93,2Z" transform="translate(-670.44 -256.9)"/><path class="cls-2" d="M970.19,533.08a6.78,6.78,0,0,1-.87,3.63c-1,1.85-1.79,2.76-2.57,2.76-.51-.47-1.29-1.16-2.31-2s-1.62-1.4-1.62-1.69a21,21,0,0,1,1.37-3.09,27,27,0,0,1,2.22-4.14,19,19,0,0,1,2.78,2.44,4.16,4.16,0,0,1,1,2Z" transform="translate(-670.44 -256.9)"/><path class="cls-2" d="M972.27,553a22.61,22.61,0,0,1-1.91,3.73,10.88,10.88,0,0,1-3.47,4c-2.9,1.57-6.52,3.54-10.92,5.86a51.26,51.26,0,0,0-9.48,6.08v-.17l-.07.12-.83,1a20,20,0,0,0,4.75.34,22.33,22.33,0,0,0,6.85-.91c.78-.21,1.16.1,1.16,1a4,4,0,0,1-1,2.51c-1.16,1.1-2.7,2.6-4.55,4.48-5.38,6.37-8.58,10-9.63,10.87v-.13c-.2.58-.42,1.22-.69,1.85-2.21,5.49-4.84,8.75-7.92,9.78-5.38,2-8.61,2.94-9.69,2.85-.51,0-.78-.07-.87-.19s.42-.5,1.44-1.16,2.42-1.57,4.25-2.6c6.57-4.11,9.89-7.33,9.89-9.65a3.71,3.71,0,0,1-2.57.41c-2.89-.47-4.28-1.66-4.28-3.6,0-1.47.75-3.61,2.25-6.37s2.89-4.17,4.24-4.17a4,4,0,0,1,3.41,2.26,9.77,9.77,0,0,1,1.32,4.37,40.87,40.87,0,0,1,3.23-3c2.66-2.32,4.13-4,4.39-4.83-.77-.09-3.26-.15-7.44-.15-1.59,0-2.22-.53-1.91-1.63a11.18,11.18,0,0,1,2-3.82l2.19-2.45.06.12h0a152.8,152.8,0,0,1,12-9.56,85.36,85.36,0,0,1,12.86-7.37C972,552.55,972.33,552.58,972.27,553Z" transform="translate(-670.44 -256.9)"/><path class="cls-2" d="M988.09,564.25q-1.89,5.18-4.3,7a32.54,32.54,0,0,1-10.92,4,.44.44,0,0,1-.42-.22c0-.22.58-.78,1.7-1.66s2.94-2.23,5.42-4.06q6.33-5.36,6.37-7.89l-2.48.22a3.79,3.79,0,0,1-3-1,3,3,0,0,1-.83-2.62,27.72,27.72,0,0,1,2.31-6.18c1.42-3.09,2.78-4.66,4.1-4.66a3.94,3.94,0,0,1,3.29,1.73,5.76,5.76,0,0,1,1.32,3.39,33.84,33.84,0,0,1-.36,4.26,48,48,0,0,1-2.25,7.8Z" transform="translate(-670.44 -256.9)"/><path class="cls-2" d="M962.68,589.53" transform="translate(-670.44 -256.9)"/><path class="cls-2" d="M1016.31,602.92a7,7,0,0,1-.82,3.7c-.92,1.85-1.79,2.79-2.57,2.79-.53-.5-1.34-1.16-2.39-2s-1.61-1.41-1.61-1.74a27.91,27.91,0,0,1,1.4-3.11,39,39,0,0,1,2.27-4.16,17.25,17.25,0,0,1,2.79,2.47,3.7,3.7,0,0,1,.93,2Z" transform="translate(-670.44 -256.9)"/><path class="cls-2" d="M1023.45,601.58a7.25,7.25,0,0,1-.9,3.7c-.95,1.84-1.79,2.75-2.57,2.75-.51-.47-1.28-1.09-2.31-1.94s-1.62-1.38-1.62-1.66a43.7,43.7,0,0,1,3.62-7.24,18.48,18.48,0,0,1,2.78,2.45,4.38,4.38,0,0,1,1,1.94Z" transform="translate(-670.44 -256.9)"/><path class="cls-2" d="M1050.48,599.47a6.57,6.57,0,0,1-.89,3.7c-.89,1.85-1.73,2.75-2.48,2.75-.54-.46-1.35-1.15-2.43-1.94s-1.58-1.37-1.58-1.66a22.67,22.67,0,0,1,1.37-3.16,34.85,34.85,0,0,1,2.28-4.1,17.2,17.2,0,0,1,2.72,2.47,4.37,4.37,0,0,1,1,1.94Z" transform="translate(-670.44 -256.9)"/><path class="cls-2" d="M1027.65,561.11h0v0Z" transform="translate(-670.44 -256.9)"/><path class="cls-2" d="M1052.86,556.22a24.72,24.72,0,0,1-2.09,5.56c-.3.62-.64,1.27-1,1.93h0c-1.74,1.79-3,2.75-3.71,2.9a4.84,4.84,0,0,1-3.26-1.13,5.16,5.16,0,0,0-3.48-1.16c-.9.15-2.12,1.16-3.62,3l-2.24,2.7a53.46,53.46,0,0,1-15.7,12.53A75.39,75.39,0,0,1,999.48,590a63.46,63.46,0,0,1-14.38,2.1h-.39Q970,592,961.32,588.32q-.77-.52-2.69,3.76a70.09,70.09,0,0,1-3.14,6.32c-2.12,3.6-4.24,5.64-6.31,6.17-1.49.38-2.32,0-2.48-1.06s.83-2.69,3-4.82q4.67-4.85,10.5-16.64c1.35-3.1,3.32-4.39,5.89-3.82q11.09,3.42,19.05,3.41h0l4.84.06q10,.24,21.69-4.11t17.43-9.58c2.32-2.13,4.67-4.35,7.09-6.71s4.09-3.47,5-3.47c.24-.09,1,.31,2.46,1.2a6.09,6.09,0,0,0,3.35,1.22,5,5,0,0,0,2.83-1.53l1.26-2.32c.72-1.22,1.26-1.85,1.62-1.85S1053.09,555.2,1052.86,556.22Z" transform="translate(-670.44 -256.9)"/><path class="cls-2" d="M1063,549.71a6.29,6.29,0,0,1-.81,3.7c-.93,1.85-1.8,2.76-2.57,2.76-.54-.48-1.35-1.13-2.4-1.95s-1.61-1.4-1.61-1.73a58.59,58.59,0,0,1,3.68-7.24,17.19,17.19,0,0,1,2.78,2.48,4.24,4.24,0,0,1,.93,2Z" transform="translate(-670.44 -256.9)"/><path class="cls-2" d="M1070.11,548.43a6.84,6.84,0,0,1-.86,3.63c-1,1.85-1.8,2.76-2.58,2.76-.51-.47-1.28-1.16-2.31-1.94s-1.62-1.41-1.62-1.7a20.41,20.41,0,0,1,1.38-3.09,27.84,27.84,0,0,1,2.21-4.14,18.48,18.48,0,0,1,2.78,2.44,4.08,4.08,0,0,1,1,2Z" transform="translate(-670.44 -256.9)"/><path class="cls-2" d="M1062.81,574.84a20.41,20.41,0,0,1-.26,2.35q-2.16,12.36-7.06,12.34c-3.18,0-5-2.66-5.38-7.95a27.32,27.32,0,0,1-2.46,3.73,10,10,0,0,1-4.43,3.42,57.36,57.36,0,0,1-5.62,1.62c-2.42.6-3.68.75-3.68.44q0-.79,2.16-2.16c1.45-.91,3.11-2,5.11-3.23a24.64,24.64,0,0,0,7.66-8.17,61.25,61.25,0,0,0,3.53-6.89c1.08-2.32,1.91-3.42,2.51-3.26.3.12.39.52.21,1.16s-.42,1.47-.72,2.47c-.11.4-.24.83-.37,1.29.15,5.21,1.83,7.65,5,7.29,1.08,0,2-1.56,2.84-4.7.09-.66.3-1,.58-.87S1062.88,574.18,1062.81,574.84Z" transform="translate(-670.44 -256.9)"/><path class="cls-2" d="M862.37,559.13a18.13,18.13,0,0,1-.72,4.85,25.37,25.37,0,0,1-1.77,4.85,22.08,22.08,0,0,1-3.56,5.35,5.63,5.63,0,0,1-4.06,1.86q-3.56,0-3.56-4.48a11.9,11.9,0,0,1,.48-3.35,29.06,29.06,0,0,1,1.54-3.47c.58-1.12,1.07-2,1.54-2.73a6,6,0,0,1-.71-.25h-.24c-.12-.25.12-1,.58-2.12l3.45-8.1c.35-.87.71-1.25,1.06-1.25a3.18,3.18,0,0,1,1.43.63,10.22,10.22,0,0,1,1.66,1.11,8,8,0,0,1,2.88,7.1Zm-4.64,8a3.21,3.21,0,0,0-1-2.36,7,7,0,0,0-1.42-1.12,3.29,3.29,0,0,0-1.42-.62c-.24,0-.84.62-1.55,1.74a5.73,5.73,0,0,0-1.07,3c0,1.49.83,2.24,2.62,2.24a4.6,4.6,0,0,0,2.49-.87,2.63,2.63,0,0,0,1.3-2Z" transform="translate(-670.44 -256.9)"/><path class="cls-2" d="M891.42,563.61a3.57,3.57,0,0,1-.24,1.37c-.12.62-.47,1.61-.83,3.1a13.81,13.81,0,0,1-2,4,3.12,3.12,0,0,1-3.21,1.5,5.92,5.92,0,0,0-2.14,0c-1.66.62-3.44,2.48-5.1,5.72-1.9,3.23-4,4.84-6.29,4.84a6.65,6.65,0,0,1-5.34-3.35,13.93,13.93,0,0,1-1.66-4.48c-.72,1.12-1.67,2.49-2.85,4.35a12.66,12.66,0,0,1-1.79,1.87,7.55,7.55,0,0,1-1.9,1.12l-2.13.74c-.83.25-1.54.38-2.38.63l-3.2.87A5.2,5.2,0,0,1,848,586c0-.49.47-1.12,1.54-1.74s1.9-1.24,3-1.86,2-1.38,3-2a31.38,31.38,0,0,0,5.7-5.22c1-1.24,1.66-2.36,2.26-3.23.35-.5.83-1.49,1.54-2.74l2-4.47a15,15,0,0,1,1.42-2.49c.48-.62.83-1,1.16-.87s.36.5.24,1c-.36,1.11-.58,1.86-.71,2.11a23.46,23.46,0,0,0-.72,2.86,8.46,8.46,0,0,0,2.26,5.47,5.84,5.84,0,0,0,4.15,1.62,6.36,6.36,0,0,0,5.34-3,18,18,0,0,1,2.74-3.1,3.33,3.33,0,0,1,2.13-1c1.78.75,2.85.87,3.44.13a32.11,32.11,0,0,0,1.9-3c.36-.5.58-.87.71-.87C891.32,563.24,891.42,563.36,891.42,563.61Z" transform="translate(-670.44 -256.9)"/><path class="cls-2" d="M880.26,542.72c-1.3-1.37-2.37-2-3.08-1.74-.36,0-1.19,1.24-2.38,3.73s-1.78,4.1-1.78,4.85a1.15,1.15,0,0,0,.71,1c.58.38,1.43,1,2.5,1.74s1.78,1.24,2,1.37c.48,0,1.31-1,2.5-3A11.66,11.66,0,0,0,882.4,546C882.4,545.21,881.69,544.08,880.26,542.72Z" transform="translate(-670.44 -256.9)"/><path class="cls-2" d="M888.57,598.8c-1.07-1.24-2-1.87-2.85-1.87-.23,0-.83.75-1.54,2.12s-1.54,2.61-2.14,3.73a21.68,21.68,0,0,0-2.37-2.86c-1.07-1.12-1.78-1.49-2.38-1.25-.23,0-1.06,1.25-2.37,3.86a24.6,24.6,0,0,0-2,4.48c0,.25.48.74,1.43,1.48s1.66,1.38,2.14,1.88a2.4,2.4,0,0,0,1.06.61c1.07,0,2.37-1.86,4.16-5.47a18.27,18.27,0,0,1,2.49,2.24c1,1,1.54,1.49,1.9,1.49.58,0,1.42-.87,2.61-2.61a8.38,8.38,0,0,0,1.78-4.6A8.74,8.74,0,0,0,888.57,598.8Z" transform="translate(-670.44 -256.9)"/><path class="cls-2" d="M908.28,521.71a16.87,16.87,0,0,0,6.64-1.37,17.55,17.55,0,0,0,3.33-1.87,23.11,23.11,0,0,1,2-1.37,1.57,1.57,0,0,1,.83-.37c.23,0,.23.12.23.5a2,2,0,0,1-.47,1.24,26.31,26.31,0,0,1-2.49,3.61,22.71,22.71,0,0,1-3.92,3.47,25.86,25.86,0,0,1-6.29,3.35,19.33,19.33,0,0,1-7,.88,19.93,19.93,0,0,1-3-.5,17,17,0,0,0-3.08-.62,9.81,9.81,0,0,0-3.33.12,8.73,8.73,0,0,0-2.37,1.12,12.67,12.67,0,0,0-1.78,1.49c-.58.5-1,.62-1.31.37-.11-.25,0-.74.36-1.61a10,10,0,0,1,1.67-2.49,21.47,21.47,0,0,1,5.21-4.85c2.25-1.49,4.15-2.23,5.82-2.23a42.25,42.25,0,0,1,4.86.74A22,22,0,0,0,908.28,521.71Zm-8.9,28.59c-.12,2.37-.12,4.64-.12,6.59s-.12,3.61-.24,5a35.62,35.62,0,0,1-1.55,7.71,27.91,27.91,0,0,1-1.9,4.47,10.49,10.49,0,0,1-1.18,1.62c-.36.37-.58.5-.83.37s-.24-.25-.24-.62c0-.12.24-1.12.58-3.11a47.79,47.79,0,0,0,.71-5.72,77,77,0,0,0,0-7.83,47.29,47.29,0,0,1,.24-7.71c.12-1,.36-2.11.58-3.23a26.65,26.65,0,0,1,1.06-3.24c.36-1.12.84-2.11,1.19-3.11s.83-1.86,1.19-2.48.58-.62.72-.5.35.25.23.5a10.63,10.63,0,0,0-.23,1.86c-.13,1-.13,2.12-.24,3.36s-.12,2.49-.12,3.61A9.39,9.39,0,0,1,899.38,550.3Z" transform="translate(-670.44 -256.9)"/><path class="cls-3" d="M959,682.06a179.48,179.48,0,0,1-126.19-51.41c-1-1-2.06-2-3.07-3.07l-.37-.38-.14-.52A180.95,180.95,0,0,1,958.55,404.33l.51-.13.52.13a180.65,180.65,0,0,1,135.58,175.05h0a180.78,180.78,0,0,1-6.26,47.3l-.14.52-.38.38a179.54,179.54,0,0,1-127.15,54.47Zm-125.92-57c.86.88,1.74,1.75,2.62,2.61,69.55,67.9,181.29,66.69,249.35-2.61a176.23,176.23,0,0,0,6-45.7h0a176.5,176.5,0,0,0-132-170.91,176.8,176.8,0,0,0-126,216.61Z" transform="translate(-670.44 -256.9)"/></svg>